<svg xmlns="http://www.w3.org/2000/svg" width="400" height="67" viewBox="0 0 400 66.67"><path d="m92.47 7.37c-3.29 0.37-5.87 1.7-6.93 3.59-0.33 0.59-1.27 2.51-1.27 2.6 0 0.02-0.1 0.25-0.23 0.52-0.12 0.27-0.45 1.07-0.73 1.79-0.28 0.72-0.54 1.36-0.57 1.43s-0.17 0.43-0.3 0.8c-0.23 0.62-0.37 1-0.5 1.33-0.03 0.07-0.13 0.36-0.23 0.63-0.1 0.28-0.22 0.62-0.28 0.77-0.05 0.15-0.17 0.48-0.25 0.73-0.08 0.26-0.34 0.99-0.56 1.63-0.49 1.4-1.49 4.39-1.83 5.5-0.14 0.44-0.3 0.97-0.37 1.17-0.1 0.32-0.54 1.71-0.75 2.4-0.04 0.13-0.09 0.31-0.13 0.4-0.03 0.09-0.21 0.69-0.39 1.33s-0.41 1.42-0.5 1.73c-0.09 0.31-0.2 0.69-0.24 0.83-0.04 0.15-0.1 0.34-0.13 0.43s-0.12 0.41-0.2 0.7-0.18 0.68-0.23 0.87c-0.16 0.55-0.37 1.33-0.85 3.08-0.25 0.9-0.43 1.55-0.54 1.95-0.06 0.2-0.13 0.49-0.16 0.63-0.03 0.15-0.14 0.57-0.24 0.93-0.1 0.37-0.2 0.77-0.23 0.9-0.03 0.13-0.19 0.76-0.36 1.4-0.17 0.64-0.4 1.53-0.51 1.97-0.7 2.71 0.5 4.3 2.83 3.78 2.95-0.66 6.78-3.55 8.26-6.24 0.06-0.11 0.17-0.3 0.25-0.43 0.22-0.36 0.87-1.65 1.1-2.17 0.11-0.26 0.28-0.63 0.37-0.83 0.09-0.2 0.29-0.68 0.45-1.07 0.15-0.38 0.32-0.79 0.37-0.9s0.15-0.38 0.23-0.6c0.24-0.64 0.48-1.25 0.6-1.53 0.06-0.15 0.28-0.67 0.48-1.17 0.85-2.09 1.33-3 2.43-4.65 0.63-0.95 0.65-0.94 0.71 0.36 0.03 0.54 0.07 1.21 0.11 1.48s0.11 0.89 0.17 1.37c0.06 0.48 0.13 1 0.16 1.17s0.09 0.53 0.14 0.8c0.04 0.28 0.12 0.67 0.16 0.87 0.05 0.2 0.12 0.55 0.17 0.77 0.08 0.37 0.17 0.72 0.44 1.77 1.12 4.26 3.3 7.63 6.19 9.58 1.57 1.06 3.23 1.7 5.33 2.05 0.82 0.14 3.04 0.16 3.74 0.04 1.24-0.22 2.48-0.59 3.29-0.97 0.27-0.13 0.5-0.23 0.51-0.23 0.27 0 1.85-1.2 2.76-2.09 1.57-1.54 1.5-2-0.42-2.95-2.88-1.42-6.14-4.82-8.42-8.8-0.79-1.38-2.06-3.92-2.48-4.97-0.15-0.38-0.3-0.76-0.34-0.83-0.1-0.22-0.51-1.49-0.68-2.13-0.34-1.23-0.48-1.85-0.91-4.07-0.04-0.18-0.1-0.49-0.14-0.69-0.13-0.66-0.11-0.75 0.27-1.05 0.19-0.15 0.43-0.34 0.54-0.42 0.62-0.51 3.9-2.74 5.26-3.58 2.69-1.67 3.44-2.15 4.3-2.72 3.4-2.29 4.97-3.78 5.82-5.53 0.95-1.94 1.06-3.58 0.28-4.29-0.16-0.14-0.26-0.2-0.77-0.41-1.39-0.59-5.19 0.42-7.62 2.02-0.13 0.09-0.56 0.37-0.95 0.62-1.01 0.66-2.93 2.03-3.13 2.23-0.02 0.02-0.23 0.2-0.47 0.4-0.79 0.67-1.91 1.68-3.26 2.97-1.1 1.05-1.01 0.95-3.74 3.9-0.53 0.57-1.3 1.41-1.73 1.87-0.42 0.46-0.92 1-1.1 1.2-0.18 0.2-0.52 0.56-0.74 0.8-0.4 0.42-0.58 0.64-0.98 1.2-0.18 0.25-0.37 0.36-0.37 0.21 0-0.06 0.43-1.3 0.9-2.57 0.13-0.37 0.34-0.95 0.46-1.3 0.12-0.35 0.29-0.81 0.37-1.03s0.3-0.82 0.48-1.33 0.41-1.14 0.5-1.4c0.24-0.67 1.18-3.51 1.36-4.1 0.08-0.28 0.21-0.68 0.28-0.9 1.38-4.32 0.79-5.48-2.81-5.53-0.68-0.01-1.34-0.01-1.47 0.01m167.5 0.82c-2.29 0.26-3.51 1.37-4.12 3.77-0.96 3.79-0.07 4.93 3.85 4.93 3.78 0 5.06-1.03 5.74-4.6 0.46-2.41-0.12-3.57-2.01-4.03-0.4-0.1-2.81-0.15-3.47-0.07m52.1 2c-1.55 0.25-1.95 0.52-2.16 1.44-0.06 0.29-0.14 0.65-0.18 0.8-0.03 0.15-0.11 0.54-0.17 0.87-0.06 0.33-0.13 0.71-0.17 0.83-0.03 0.13-0.09 0.4-0.13 0.6-0.16 0.84-0.28 1.45-0.34 1.7-0.03 0.15-0.09 0.43-0.13 0.63-0.04 0.2-0.14 0.68-0.21 1.07s-0.16 0.82-0.19 0.97-0.11 0.58-0.19 0.97-0.17 0.85-0.21 1.03c-0.04 0.18-0.14 0.69-0.23 1.13-0.09 0.44-0.18 0.88-0.19 0.97-0.02 0.09-0.09 0.48-0.17 0.87-0.08 0.39-0.17 0.87-0.21 1.07-0.04 0.2-0.1 0.49-0.13 0.63-0.06 0.26-0.23 1.11-0.28 1.43-0.02 0.09-0.12 0.62-0.23 1.17s-0.22 1.08-0.23 1.17c-0.02 0.09-0.11 0.56-0.21 1.03-0.1 0.48-0.2 0.94-0.21 1.03-0.02 0.09-0.12 0.62-0.23 1.17s-0.22 1.08-0.23 1.17c-0.06 0.32-0.23 1.17-0.28 1.43-0.03 0.15-0.09 0.43-0.13 0.63-0.04 0.2-0.14 0.68-0.21 1.07s-0.16 0.82-0.19 0.97c-0.03 0.15-0.11 0.58-0.19 0.97s-0.17 0.85-0.21 1.03c-0.04 0.18-0.14 0.71-0.23 1.17-0.09 0.46-0.2 1-0.24 1.2-0.04 0.2-0.11 0.56-0.16 0.8-0.05 0.24-0.12 0.61-0.17 0.83-0.04 0.22-0.1 0.52-0.13 0.67-0.05 0.25-0.17 0.86-0.34 1.7-0.04 0.2-0.1 0.47-0.13 0.6s-0.11 0.5-0.17 0.83c-0.06 0.33-0.14 0.72-0.17 0.87-0.73 3.13-0.54 4.2 0.84 4.63 0.44 0.14 0.53 0.14 10.66 0.14h10.22l0.27-0.2c0.59-0.42 1.08-1.46 1.39-2.9 0.54-2.52 0.53-3.66-0.02-4.02-0.17-0.11-0.65-0.12-7.05-0.15l-6.87-0.03-0.02-0.19c-0.01-0.1 0.02-0.37 0.08-0.6 0.09-0.4 0.17-0.75 0.32-1.56 0.04-0.21 0.1-0.52 0.14-0.68s0.1-0.44 0.13-0.62c0.13-0.7 0.18-0.97 0.29-1.48 0.06-0.29 0.13-0.61 0.14-0.7 0.05-0.3 0.17-0.89 0.26-1.3 0.09-0.44 0.21-1 0.31-1.57 0.04-0.2 0.11-0.56 0.16-0.8 0.05-0.24 0.12-0.61 0.17-0.83s0.1-0.52 0.14-0.67c0.06-0.25 0.18-0.86 0.34-1.7 0.04-0.2 0.1-0.47 0.13-0.6 0.03-0.13 0.08-0.37 0.1-0.53 0.02-0.16 0.07-0.4 0.1-0.53s0.09-0.41 0.13-0.63c0.04-0.22 0.12-0.59 0.17-0.83 0.08-0.41 0.17-0.82 0.31-1.53 0.03-0.16 0.1-0.51 0.15-0.77 0.05-0.26 0.13-0.63 0.17-0.83 0.04-0.2 0.12-0.61 0.18-0.9s0.13-0.65 0.16-0.8 0.09-0.43 0.13-0.63c0.04-0.2 0.14-0.68 0.21-1.07 0.08-0.38 0.16-0.77 0.17-0.87 0.02-0.09 0.13-0.68 0.25-1.3 0.12-0.62 0.24-1.21 0.25-1.3 0.02-0.09 0.09-0.48 0.17-0.87 0.08-0.38 0.17-0.86 0.21-1.07 0.04-0.2 0.12-0.56 0.17-0.8s0.13-0.61 0.17-0.83 0.1-0.52 0.13-0.67 0.11-0.51 0.16-0.8c0.12-0.59 0.17-0.86 0.38-1.9 0.52-2.56 0.51-2.66-0.24-2.97-0.84-0.35-4.45-0.49-6.04-0.24m-283.03 0.65c-0.11 0.02-0.48 0.06-0.83 0.1-6.72 0.75-10.44 4.24-7.65 7.18 3.99 4.2 17.18 4.23 21.33 0.05 2.85-2.87-0.37-6.09-7.18-7.17-0.82-0.13-4.99-0.24-5.67-0.15m16.94 2.21c-1.2 6.2-0.84 7.8 2.29 10.32 1.16 0.93 3.86 2.8 3.93 2.71 0.03-0.03 0.17-0.64 0.32-1.36 1.3-6.18 0.85-7.86-2.92-10.84-0.82-0.65-3.21-2.41-3.27-2.41-0.02 0-0.18 0.71-0.35 1.58m20.46-0.91c-9.83 2.11-10.67 2.91-12.5 11.93-0.19 0.94-0.36 1.72-0.38 1.75-0.04 0.07-0.21 0.1 2.21-0.38 8.34-1.65 9.5-2.86 11.6-12.04 0.1-0.42 0.22-0.94 0.27-1.15s0.07-0.38 0.05-0.37c-0.02 0-0.58 0.12-1.24 0.27m-48.35 7.6c-4.04 0.39-6.24 2.97-4.86 5.71 3.87 7.66 32.42 14.44 38.26 9.08 3.49-3.2-1.67-8.34-12.02-11.97l-1.23-0.43-0.84 0.17c-5.91 1.17-13.88 0.1-17.79-2.4-0.38-0.25-0.48-0.25-1.53-0.15m156.19 0.96c-0.05 0.01-0.34 0.06-0.63 0.11-0.78 0.12-2.11 0.48-2.26 0.61-0.04 0.03-0.1 0.06-0.14 0.06-0.17 0-1.68 0.72-2.36 1.13-1.79 1.08-3.61 2.75-4.58 4.22-0.21 0.32-0.35 0.21-0.22-0.16 0.07-0.2 0.13-0.5 0.26-1.28 0.07-0.42 0.32-1.71 0.41-2.09 0.04-0.16 0.09-0.51 0.11-0.78l0.04-0.49-0.23-0.23c-0.51-0.51-2.75-0.73-4.69-0.48-1.64 0.22-1.99 0.43-2.2 1.36-0.17 0.79-0.22 1.01-0.3 1.44-0.04 0.22-0.12 0.6-0.17 0.83-0.05 0.24-0.12 0.61-0.17 0.83s-0.1 0.52-0.14 0.67c-0.05 0.24-0.13 0.62-0.34 1.7-0.04 0.2-0.1 0.49-0.13 0.63-0.06 0.28-0.23 1.15-0.28 1.43-0.02 0.09-0.12 0.62-0.23 1.17s-0.22 1.08-0.23 1.17c-0.02 0.09-0.19 0.93-0.38 1.87s-0.36 1.78-0.38 1.87c-0.02 0.09-0.12 0.62-0.23 1.17s-0.22 1.08-0.23 1.17c-0.02 0.09-0.1 0.53-0.19 0.97s-0.19 0.95-0.23 1.13-0.13 0.65-0.21 1.03c-0.18 0.91-0.23 1.14-0.32 1.66-0.04 0.24-0.09 0.45-0.1 0.47-0.01 0.02-0.06 0.24-0.1 0.47-0.09 0.52-0.14 0.75-0.32 1.66-0.08 0.39-0.17 0.87-0.21 1.07-0.04 0.2-0.1 0.49-0.13 0.63-0.06 0.26-0.22 1.11-0.28 1.43-0.08 0.43-0.45 2.27-0.53 2.6-0.36 1.58 0.24 1.89 3.75 1.89 3.58 0.01 4.33-0.29 4.63-1.86 0.06-0.33 0.14-0.73 0.18-0.9 0.1-0.45 0.34-1.67 0.39-1.97 0.03-0.15 0.11-0.58 0.19-0.97s0.17-0.86 0.21-1.07c0.04-0.2 0.1-0.49 0.13-0.63 0.06-0.25 0.18-0.86 0.34-1.7 0.04-0.2 0.1-0.47 0.13-0.6 0.03-0.13 0.11-0.5 0.17-0.83s0.14-0.72 0.17-0.87c0.04-0.15 0.18-0.88 0.33-1.63 0.35-1.76 0.51-2.5 0.72-3.2 0.59-2.04 1.75-4.18 3.21-5.97 1.75-2.13 4.03-3.47 5.91-3.46 1.24 0 1.74 0.27 2.31 1.23 0.4 0.68 0.58 2.73 0.34 4.02-0.04 0.25-0.11 0.65-0.15 0.9-0.04 0.25-0.14 0.81-0.23 1.25-0.09 0.44-0.19 0.97-0.23 1.17-0.04 0.2-0.11 0.56-0.16 0.8-0.05 0.24-0.12 0.61-0.17 0.83s-0.1 0.52-0.13 0.67c-0.07 0.32-0.33 1.6-0.38 1.83-0.05 0.29-0.22 1.16-0.28 1.43-0.03 0.15-0.09 0.43-0.13 0.63-0.04 0.2-0.14 0.68-0.21 1.07-0.08 0.39-0.16 0.82-0.19 0.97-0.09 0.47-0.66 3.32-0.73 3.6-0.03 0.15-0.09 0.43-0.13 0.63s-0.14 0.68-0.21 1.07-0.17 0.85-0.2 1.03-0.09 0.47-0.12 0.63c-0.32 1.62 0.2 1.89 3.71 1.89 2.32 0.01 3.24-0.12 3.94-0.53 0.51-0.3 0.59-0.52 0.92-2.3 0.04-0.23 0.3-1.51 0.38-1.83 0.03-0.15 0.09-0.45 0.13-0.67 0.04-0.22 0.12-0.59 0.17-0.83 0.05-0.24 0.12-0.6 0.17-0.8 0.04-0.2 0.14-0.68 0.21-1.07 0.14-0.72 0.19-0.96 0.31-1.6 0.04-0.2 0.12-0.59 0.18-0.87s0.13-0.63 0.16-0.8c0.06-0.35 0.64-3.24 0.73-3.63 0.03-0.15 0.09-0.43 0.13-0.63 0.04-0.2 0.14-0.68 0.22-1.07 0.08-0.38 0.16-0.82 0.19-0.97 0.03-0.15 0.11-0.58 0.19-0.97 0.22-1.08 0.27-1.34 0.31-1.63 0.02-0.15 0.09-0.54 0.14-0.87 0.84-4.98-0.09-8.58-2.71-10.45-0.92-0.66-1.73-0.99-3.23-1.32-0.31-0.07-3.08-0.15-3.3-0.1m30.67 0.08c-6.12 0.75-10.88 4.33-13.79 10.38-0.74 1.55-1.48 3.64-1.85 5.22-0.06 0.26-0.13 0.59-0.17 0.73-0.07 0.31-0.23 1.19-0.33 1.87-0.21 1.41-0.24 1.91-0.24 3.87 0 2.07 0.02 2.33 0.3 3.67 0.37 1.81 1.31 3.58 2.51 4.71 0.35 0.33 1.19 1 1.25 1 0.02 0 0.2 0.1 0.39 0.22 0.84 0.53 2.13 1.02 3.45 1.32 3.41 0.77 8.49 0.59 12.7-0.45 2.33-0.57 3.38-1.15 3.89-2.14 0.48-0.94 0.86-2.49 0.93-3.85 0.08-1.56-0.2-1.69-2.17-1.03-1.19 0.4-2.49 0.79-3.11 0.92-0.18 0.04-0.53 0.12-0.77 0.17-3.89 0.86-7.38 0.73-9.04-0.34-1.63-1.05-2.38-3.67-1.86-6.48 0.06-0.31 0.1-0.64 0.11-0.74 0-0.25 0.01-0.26 3-0.26 1.49 0 3.08-0.03 3.53-0.07 1.43-0.12 2.89-0.27 3.23-0.33 0.18-0.03 0.6-0.11 0.93-0.17 0.63-0.11 0.68-0.12 1.87-0.4 5.97-1.41 9.15-4.72 9.13-9.5-0.02-5.72-5.95-9.26-13.9-8.29m30.17 0.02c-0.94 0.13-1.73 0.28-2.3 0.45-0.63 0.18-1.36 0.44-1.43 0.5-0.04 0.03-0.1 0.06-0.15 0.06-0.18 0-1.54 0.71-2.19 1.13-3.3 2.17-5.09 5.82-4.76 9.68 0.28 3.29 1.79 4.99 6.49 7.32 4.05 2.02 4.65 2.61 4.53 4.45-0.13 1.93-1.32 3.06-3.8 3.61-0.44 0.1-2.99 0.1-3.49 0-1.8-0.36-3.13-0.88-4.64-1.85-1.65-1.06-2.17-0.72-2.79 1.86-0.71 2.98-0.51 3.7 1.31 4.64 1.13 0.59 2.37 0.96 4.31 1.3 2 0.35 4.83 0.35 6.8 0 0.83-0.15 1.18-0.22 1.37-0.27 1.04-0.31 1.81-0.56 1.86-0.61 0.04-0.03 0.1-0.06 0.15-0.06 0.14 0 1.53-0.68 2.05-1 1.21-0.75 2.2-1.61 3.14-2.74 1.82-2.21 2.69-6.13 1.97-8.94-0.63-2.47-2.85-4.51-6.73-6.18-3.86-1.67-4.89-2.87-4.18-4.89 0.31-0.88 1.54-2.18 2.06-2.18 0.04 0 0.16-0.04 0.28-0.09 0.7-0.31 2.37-0.46 3.64-0.31 0.66 0.08 0.85 0.11 1.5 0.29 0.61 0.17 1.79 0.64 2.63 1.06 1.44 0.71 1.79 0.74 2.15 0.14 0.74-1.19 1.32-4.04 1.01-4.95-0.58-1.7-6.43-2.99-10.8-2.39m47.17 0c-1.03 0.14-1.53 0.22-2.1 0.37-0.39 0.1-0.47 0.12-1.13 0.32-0.44 0.13-1.39 0.48-1.77 0.66-2.23 1.04-3.39 1.82-4.99 3.36-2.51 2.41-4.68 6.34-5.54 10-0.24 1.03-0.26 1.12-0.36 1.63-0.48 2.48-0.61 5.15-0.37 7.28 0.12 1.04 0.38 2.18 0.68 3.02 1.03 2.85 3.69 5.28 6.61 6.04 0.11 0.03 0.38 0.1 0.59 0.16 2.98 0.82 7.48 0.77 10.51-0.1 0.63-0.18 0.98-0.3 1.37-0.46 0.07-0.03 0.3-0.12 0.5-0.2 0.34-0.13 0.73-0.31 1.33-0.58 0.13-0.06 0.35-0.18 0.49-0.26 0.14-0.09 0.4-0.24 0.57-0.33 1.22-0.67 3.6-2.77 4.48-3.95 0.15-0.2 0.34-0.46 0.43-0.57 0.9-1.17 2.15-3.45 2.74-5.02 1.81-4.79 2.25-10.42 1.11-14.15-1-3.26-3.85-5.97-7.02-6.67-0.13-0.03-0.4-0.1-0.6-0.16-1.62-0.47-5.38-0.65-7.53-0.37m-157.83 0.47c-1.74 0.21-2.23 0.51-2.43 1.46-0.09 0.44-0.07 0.72 0.22 2.37 0.08 0.44 0.15 0.89 0.16 1 0.01 0.11 0.05 0.35 0.09 0.53 0.03 0.18 0.11 0.62 0.17 0.97 0.06 0.35 0.13 0.78 0.17 0.97 0.04 0.18 0.14 0.8 0.23 1.37 0.09 0.57 0.2 1.18 0.23 1.37s0.11 0.62 0.17 0.97c0.11 0.69 0.21 1.24 0.3 1.77 0.03 0.18 0.11 0.62 0.17 0.97s0.13 0.78 0.17 0.97c0.03 0.18 0.09 0.53 0.13 0.77 0.07 0.44 0.23 1.36 0.34 1.97 0.03 0.18 0.11 0.63 0.17 1s0.14 0.82 0.17 1 0.09 0.51 0.13 0.73 0.11 0.64 0.16 0.93c0.05 0.29 0.13 0.74 0.17 1 0.08 0.52 0.15 0.91 0.31 1.8 0.06 0.33 0.13 0.77 0.17 0.97 0.03 0.2 0.11 0.64 0.17 0.97s0.13 0.77 0.17 0.98c0.13 0.79 0.2 1.17 0.29 1.68 0.05 0.29 0.13 0.74 0.17 1 0.13 0.8 0.2 1.18 0.3 1.74 0.18 0.97 0.22 0.87-0.85 2.28-0.52 0.69-1.01 1.33-1.08 1.43-0.21 0.27-1.42 1.88-2.1 2.76-3.88 5.1-3.8 4.98-3.8 5.47 0 0.72 0.61 0.97 2.65 1.1 2.39 0.15 4.8-0.11 5.92-0.63 0.71-0.33 0.85-0.49 3.23-3.87 1.19-1.69 3.05-4.33 4.14-5.87 3.09-4.38 4.74-6.81 5.67-8.37 0.23-0.38 0.67-1.11 0.98-1.62 0.31-0.5 0.55-0.94 0.55-0.96s0.06-0.12 0.12-0.21c0.07-0.1 0.22-0.36 0.34-0.58 0.35-0.63 0.42-0.76 0.82-1.47 0.88-1.56 2.78-5.34 3.43-6.79 0.15-0.33 0.38-0.84 0.52-1.13s0.3-0.67 0.37-0.84 0.19-0.45 0.27-0.63c0.28-0.62 0.33-0.74 0.33-0.78 0-0.02 0.06-0.18 0.14-0.36s0.17-0.38 0.2-0.45c0.03-0.07 0.28-0.72 0.56-1.43s0.53-1.36 0.56-1.43c0.1-0.24 0.38-0.97 0.86-2.23 1.27-3.35 1.24-4.15-0.19-4.46-1.83-0.39-5.65-0.24-6.77 0.26-0.47 0.21-0.57 0.34-0.8 1.08-0.1 0.31-0.2 0.63-0.23 0.73-0.03 0.09-0.14 0.44-0.24 0.77-0.21 0.7-1.3 4.01-1.45 4.4-0.06 0.15-0.26 0.69-0.45 1.2-0.35 0.95-0.37 1-0.56 1.47-0.06 0.15-0.14 0.33-0.17 0.4-0.03 0.07-0.12 0.28-0.2 0.45-0.08 0.17-0.14 0.34-0.14 0.36s-0.04 0.14-0.1 0.27c-0.05 0.13-0.14 0.32-0.19 0.44-0.14 0.33-0.38 0.87-0.81 1.82-0.37 0.81-1.62 3.34-1.96 3.93-0.9 1.59-1.2 2.11-1.92 3.25-0.88 1.41-0.98 1.5-1.05 1-0.04-0.34-0.11-0.8-0.27-1.88-0.06-0.38-0.13-0.9-0.17-1.15-0.04-0.25-0.09-0.65-0.13-0.9-0.04-0.25-0.11-0.76-0.17-1.15s-0.13-0.9-0.17-1.15c-0.04-0.25-0.09-0.65-0.13-0.9-0.1-0.68-0.26-1.73-0.33-2.22-0.04-0.24-0.11-0.75-0.17-1.13-0.1-0.71-0.18-1.23-0.3-2.05-0.04-0.25-0.11-0.73-0.16-1.08-0.05-0.35-0.13-0.87-0.17-1.17-0.04-0.29-0.1-0.71-0.13-0.93-0.03-0.22-0.11-0.73-0.17-1.13-0.06-0.4-0.13-0.9-0.17-1.1-0.03-0.2-0.11-0.71-0.17-1.13-0.06-0.42-0.14-0.91-0.17-1.09s-0.06-0.4-0.06-0.49c0-0.75-0.58-1.16-1.8-1.28-0.88-0.09-3.53-0.09-4.23 0m132.47 0.03c-2.29 0.26-2.44 0.41-2.95 3.1-0.02 0.09-0.13 0.68-0.25 1.3-0.12 0.62-0.23 1.21-0.25 1.3s-0.09 0.48-0.17 0.87c-0.08 0.39-0.17 0.87-0.21 1.07-0.04 0.2-0.1 0.49-0.13 0.63-0.05 0.24-0.1 0.47-0.33 1.67-0.23 1.2-0.28 1.43-0.33 1.67-0.03 0.15-0.09 0.45-0.14 0.67s-0.12 0.6-0.17 0.83c-0.05 0.24-0.12 0.6-0.16 0.8-0.04 0.2-0.14 0.68-0.21 1.07-0.08 0.39-0.15 0.78-0.17 0.87-0.02 0.09-0.13 0.68-0.25 1.3-0.12 0.62-0.23 1.21-0.25 1.3-0.02 0.09-0.09 0.48-0.17 0.87-0.08 0.39-0.17 0.87-0.21 1.07-0.04 0.2-0.1 0.49-0.13 0.63-0.05 0.24-0.1 0.47-0.33 1.67-0.23 1.19-0.28 1.43-0.33 1.67-0.03 0.15-0.09 0.45-0.13 0.67-0.04 0.22-0.12 0.6-0.17 0.83-0.05 0.24-0.12 0.6-0.16 0.8-0.04 0.2-0.14 0.68-0.21 1.07-0.08 0.39-0.15 0.78-0.17 0.87-0.02 0.09-0.13 0.68-0.26 1.3-0.29 1.46-0.29 1.59-0.01 1.86 0.49 0.46 1.36 0.6 3.68 0.6 3.46 0 4.28-0.31 4.56-1.69 0.2-1 0.36-1.78 0.39-1.93 0.02-0.09 0.12-0.62 0.23-1.17s0.22-1.07 0.23-1.17c0.02-0.09 0.1-0.53 0.19-0.97s0.17-0.87 0.19-0.97c0.02-0.09 0.12-0.62 0.23-1.17s0.22-1.07 0.23-1.17c0.02-0.09 0.09-0.48 0.17-0.87 0.08-0.38 0.17-0.85 0.21-1.03s0.14-0.71 0.24-1.17c0.09-0.46 0.2-0.98 0.24-1.17 0.04-0.18 0.13-0.65 0.21-1.03 0.08-0.38 0.15-0.77 0.17-0.87 0.02-0.09 0.12-0.62 0.23-1.17s0.22-1.07 0.23-1.17c0.02-0.09 0.1-0.53 0.19-0.97s0.17-0.87 0.19-0.97c0.02-0.09 0.12-0.62 0.23-1.17s0.22-1.07 0.23-1.17c0.02-0.09 0.1-0.48 0.17-0.87 0.08-0.38 0.17-0.85 0.21-1.03 0.04-0.18 0.14-0.71 0.24-1.17s0.2-0.98 0.24-1.17c0.04-0.18 0.13-0.65 0.21-1.03s0.17-0.83 0.19-1c0.03-0.16 0.12-0.6 0.19-0.96 0.27-1.28 0.19-1.56-0.53-1.85-0.88-0.35-3.31-0.49-5.1-0.29m81.53 0c-1.92 0.21-2.33 0.47-2.56 1.63-0.04 0.2-0.14 0.68-0.22 1.07s-0.16 0.84-0.19 1c-0.06 0.37-0.17 0.95-0.26 1.3-0.04 0.15-0.09 0.43-0.13 0.63-0.21 1.09-0.28 1.46-0.34 1.7-0.06 0.29-0.11 0.51-0.37 1.87-0.09 0.48-0.19 1-0.23 1.17-0.13 0.63-0.28 1.38-0.35 1.73-0.1 0.53-0.17 0.91-0.28 1.43-0.17 0.83-0.63 3.15-0.69 3.43-0.02 0.09-0.13 0.68-0.26 1.3-0.32 1.59-0.49 2.64-0.69 4.2-0.17 1.27-0.1 3.19 0.17 4.53 0.92 4.64 4.87 6.72 10.7 5.64 2.21-0.41 5.24-2.2 7.29-4.3 0.54-0.55 1.45-1.7 1.45-1.83 0-0.04 0.03-0.07 0.08-0.07 0.05 0 0.06 0.08 0.03 0.25-0.03 0.14-0.07 0.39-0.1 0.55-0.03 0.17-0.1 0.56-0.16 0.87-0.06 0.31-0.14 0.73-0.17 0.93-0.03 0.2-0.09 0.5-0.12 0.67-0.47 2.37-0.32 2.54 2.33 2.64 2.55 0.1 3.96-0.21 4.32-0.96 0.11-0.22 0.17-0.44 0.34-1.34 0.03-0.16 0.11-0.54 0.17-0.83 0.06-0.29 0.14-0.7 0.18-0.9 0.04-0.2 0.11-0.55 0.16-0.77 0.1-0.46 0.19-0.91 0.34-1.67 0.06-0.29 0.13-0.65 0.16-0.8 0.03-0.15 0.09-0.43 0.13-0.63 0.21-1.09 0.28-1.46 0.34-1.7 0.03-0.15 0.09-0.45 0.13-0.67 0.04-0.22 0.12-0.59 0.17-0.83 0.05-0.24 0.12-0.6 0.16-0.8 0.04-0.2 0.14-0.73 0.23-1.17s0.18-0.87 0.19-0.97c0.02-0.09 0.09-0.47 0.17-0.83 0.08-0.37 0.15-0.74 0.17-0.83 0.02-0.09 0.12-0.62 0.23-1.17 0.11-0.55 0.22-1.07 0.23-1.17 0.02-0.09 0.11-0.56 0.21-1.03 0.1-0.48 0.21-1.02 0.24-1.2 0.06-0.34 0.22-1.13 0.58-2.93 0.11-0.55 0.22-1.07 0.23-1.17 0.02-0.09 0.12-0.62 0.23-1.17 0.11-0.55 0.22-1.07 0.23-1.17 0.02-0.09 0.09-0.47 0.17-0.83 0.07-0.37 0.15-0.74 0.17-0.83 0.02-0.09 0.16-0.77 0.31-1.51 0.35-1.73 0.34-1.85-0.21-2.13-0.9-0.46-3.95-0.55-6.52-0.18-0.67 0.1-1.3 0.58-1.4 1.07-0.05 0.25-0.36 1.79-0.47 2.32-0.03 0.15-0.09 0.46-0.13 0.7-0.04 0.24-0.09 0.45-0.1 0.47s-0.06 0.25-0.1 0.51c-0.11 0.63-0.19 1.05-0.53 2.73-0.04 0.18-0.14 0.71-0.23 1.17-0.22 1.13-0.22 1.12-0.41 2.07-0.09 0.46-0.18 0.92-0.21 1.03-0.02 0.11-0.1 0.5-0.17 0.87-0.07 0.37-0.16 0.8-0.19 0.97-0.94 5.06-4.83 10.47-8.2 11.39-0.16 0.05-0.4 0.11-0.53 0.15-0.94 0.29-2.36-0.04-2.9-0.68-0.69-0.82-0.95-2.84-0.61-4.77 0.2-1.14 0.24-1.33 0.35-1.86 0.06-0.29 0.12-0.61 0.14-0.7 0.06-0.35 0.23-1.18 0.29-1.43 0.03-0.15 0.21-1.08 0.4-2.07 0.19-0.99 0.37-1.9 0.4-2.03 0.03-0.13 0.14-0.64 0.23-1.13s0.2-1.05 0.24-1.23c0.19-0.93 0.36-1.76 0.41-2.03 0.03-0.16 0.07-0.39 0.1-0.5 0.11-0.5 0.32-1.56 0.36-1.83 0.03-0.16 0.11-0.6 0.18-0.97 0.08-0.37 0.15-0.74 0.17-0.83 0.02-0.09 0.13-0.62 0.24-1.18 0.31-1.51 0.28-1.71-0.32-2.02-0.66-0.34-3.54-0.5-5.37-0.3m33.23 0c-1.85 0.2-2.37 0.79-1.8 2.06 0.03 0.07 0.18 0.48 0.33 0.9 0.15 0.42 0.3 0.83 0.33 0.9 0.03 0.07 0.12 0.31 0.19 0.53 0.07 0.22 0.21 0.61 0.31 0.87 0.16 0.43 0.43 1.18 0.64 1.77 0.05 0.13 0.11 0.29 0.14 0.35 0.03 0.06 0.06 0.17 0.06 0.24 0 0.07 0.03 0.15 0.06 0.18s0.11 0.23 0.18 0.43c0.07 0.2 0.15 0.4 0.18 0.43 0.03 0.04 0.05 0.12 0.05 0.18 0 0.07 0.05 0.23 0.11 0.37 0.17 0.39 0.21 0.5 0.32 0.82 0.18 0.54 0.38 1.1 0.44 1.23 0.03 0.07 0.17 0.43 0.3 0.8 0.53 1.49 0.7 1.96 0.94 2.6 0.4 1.07 0.45 0.9-0.63 2.31-0.52 0.67-0.98 1.27-1.02 1.33-0.04 0.06-0.35 0.46-0.68 0.89-0.64 0.85-1.23 1.62-2.03 2.67-0.28 0.36-0.82 1.08-1.22 1.59-0.4 0.52-0.79 1.03-0.88 1.14s-0.43 0.56-0.76 1c-0.33 0.44-1 1.32-1.49 1.96-0.49 0.64-0.94 1.24-1.01 1.33-0.07 0.1-0.38 0.49-0.68 0.88-1.74 2.25-1.34 2.57 3.28 2.55 3.48-0.01 4.21-0.14 4.86-0.88 0.22-0.25 0.7-0.91 2.24-3.08 0.42-0.59 0.95-1.33 1.17-1.64 0.22-0.31 0.88-1.23 1.46-2.05 0.58-0.82 1.23-1.71 1.43-1.99 0.21-0.28 0.6-0.82 0.87-1.22 0.58-0.82 0.56-0.81 0.7-0.4 0.06 0.17 0.14 0.38 0.17 0.45 0.03 0.07 0.1 0.28 0.16 0.47s0.23 0.68 0.38 1.1c0.15 0.42 0.43 1.25 0.63 1.83 1.14 3.35 1.36 3.98 1.39 4.01 0.02 0.02 0.04 0.1 0.04 0.17s0.03 0.18 0.07 0.24c0.04 0.06 0.19 0.48 0.33 0.92 0.5 1.5 0.54 1.58 0.96 1.76 1 0.43 6.09 0.44 7.31 0.02 0.67-0.23 0.98-0.65 0.9-1.21-0.04-0.28-0.33-1.18-0.64-1.97-0.03-0.07-0.13-0.34-0.22-0.6-0.09-0.26-0.22-0.63-0.3-0.83-0.07-0.2-0.18-0.52-0.25-0.7-0.06-0.18-0.14-0.39-0.17-0.47-0.03-0.07-0.09-0.24-0.13-0.37-0.04-0.13-0.12-0.32-0.16-0.43s-0.15-0.39-0.23-0.63c-0.14-0.39-0.52-1.47-0.62-1.73-0.07-0.19-0.39-1.1-0.46-1.3-0.09-0.28-0.15-0.43-0.28-0.72-0.06-0.14-0.11-0.3-0.11-0.35s-0.03-0.15-0.06-0.21c-0.03-0.06-0.14-0.34-0.24-0.62s-0.2-0.55-0.24-0.62c-0.04-0.06-0.06-0.17-0.06-0.25 0-0.07-0.03-0.15-0.06-0.17-0.03-0.02-0.08-0.13-0.11-0.25-0.03-0.12-0.07-0.26-0.1-0.32s-0.13-0.33-0.23-0.6-0.2-0.55-0.24-0.62c-0.04-0.06-0.06-0.15-0.06-0.2s-0.09-0.32-0.2-0.6c-0.11-0.29-0.2-0.57-0.2-0.63 0-0.09 1.55-2.22 2.77-3.81 0.22-0.29 0.77-1.03 5.1-6.83 1.04-1.39 1.96-2.62 2.05-2.73 1.36-1.71 1.16-2.12-1.14-2.3-2.31-0.18-5.22-0.01-6.06 0.36-0.43 0.19-0.51 0.28-3.13 3.94-0.45 0.62-0.83 1.15-0.85 1.17-0.04 0.03-1.25 1.71-2.92 4.06-1.04 1.46-1.02 1.44-1.17 1.03-0.06-0.17-0.19-0.51-0.28-0.75-0.09-0.24-0.16-0.48-0.16-0.55s-0.03-0.13-0.06-0.15c-0.03-0.02-0.07-0.1-0.09-0.19s-0.22-0.68-0.45-1.32c-0.23-0.64-0.44-1.27-0.48-1.4-0.04-0.13-0.09-0.26-0.13-0.3s-0.06-0.13-0.06-0.21-0.03-0.17-0.07-0.19c-0.04-0.02-0.07-0.11-0.07-0.19s-0.03-0.18-0.06-0.21c-0.03-0.04-0.09-0.17-0.13-0.3-0.04-0.13-0.25-0.76-0.48-1.4-0.23-0.64-0.43-1.24-0.45-1.32-0.02-0.08-0.06-0.17-0.09-0.19s-0.06-0.09-0.06-0.15c0-0.46-0.52-1.39-0.86-1.53-0.62-0.26-4.29-0.37-6.01-0.18m-314.87 5.23c-0.6 0.07-1.63 0.19-2.28 0.28l-1.18 0.15 0.28 0.5c4.05 7.39 5.45 8.07 14.27 7.03 0.5-0.06 0.53 0.05-0.57-1.8-3.53-5.91-5-6.77-10.51-6.16m150.34 0.14c0.72 0.07 1.31 0.18 1.42 0.27 0.04 0.03 0.14 0.07 0.23 0.1 1.01 0.31 1.8 1.51 1.8 2.73 0 1.55-0.96 2.71-2.9 3.5-0.13 0.05-0.48 0.17-0.97 0.32-1.24 0.39-3.09 0.57-5.88 0.57-2.47 0.01-2.52 0-2.41-0.24 0.04-0.08 0.15-0.4 0.25-0.72s0.21-0.63 0.24-0.7c1.72-3.78 3.79-5.56 6.77-5.83 0.33-0.03 0.63-0.06 0.67-0.06s0.39 0.02 0.77 0.06m78.66 0.77c2.52 0.63 3.81 2.92 3.57 6.33-0.1 1.39-0.18 2.23-0.28 2.77-0.06 0.31-0.13 0.7-0.16 0.87-0.18 1-0.8 3.03-1.2 3.9-0.35 0.77-0.68 1.42-0.9 1.77-0.13 0.2-0.26 0.43-0.3 0.51-0.1 0.24-1.19 1.56-1.63 1.98-2.93 2.83-8.05 2.69-9.62-0.26-0.77-1.46-0.95-3.89-0.48-6.79 0.23-1.4 0.25-1.53 0.36-1.94 0.06-0.22 0.17-0.61 0.23-0.87 0.11-0.41 0.3-1.01 0.47-1.4 0.03-0.07 0.09-0.24 0.14-0.37 1.02-2.76 2.89-5.01 5-6.02 1.31-0.62 3.39-0.83 4.79-0.48m-266.87 5.31c-0.16 0.03-0.82 0.15-1.47 0.26-8.46 1.48-13.67 4.16-15.31 7.86-1.86 4.18 0.69 7.9 7.53 10.99 8.31 3.76 20.7 4.99 31.72 3.15 17.93-2.99 24.04-12.2 12.35-18.6l-0.75-0.41-0.3 0.23c-2.99 2.29-10.45 2.58-19.57 0.78-4.86-0.96-10.13-2.56-13.12-3.97-0.42-0.2-0.76-0.36-0.77-0.35 0 0-0.14 0.03-0.31 0.07"/></svg>