<svg id="svg" xmlns="http://www.w3.org/2000/svg" xmlns:xlink="http://www.w3.org/1999/xlink" width="400" height="66.66666666666667" viewBox="0, 0, 400,66.66666666666667"><g id="svgg"><path id="path0" d="M92.467 7.372 C 89.172 7.740,86.596 9.075,85.535 10.963 C 85.202 11.557,84.267 13.474,84.267 13.563 C 84.267 13.578,84.165 13.810,84.041 14.078 C 83.917 14.347,83.586 15.152,83.306 15.867 C 83.025 16.582,82.769 17.227,82.737 17.300 C 82.705 17.373,82.569 17.733,82.435 18.100 C 82.209 18.717,82.065 19.099,81.931 19.433 C 81.901 19.507,81.797 19.792,81.699 20.067 C 81.602 20.342,81.477 20.687,81.421 20.833 C 81.366 20.980,81.251 21.310,81.166 21.566 C 81.081 21.823,80.827 22.558,80.602 23.200 C 80.113 24.599,79.116 27.588,78.768 28.700 C 78.631 29.140,78.464 29.665,78.398 29.867 C 78.293 30.186,77.861 31.577,77.652 32.267 C 77.613 32.395,77.557 32.575,77.526 32.667 C 77.496 32.758,77.320 33.358,77.135 34.000 C 76.950 34.642,76.723 35.422,76.631 35.733 C 76.538 36.045,76.430 36.420,76.390 36.567 C 76.350 36.713,76.292 36.908,76.261 37.000 C 76.230 37.092,76.141 37.407,76.064 37.700 C 75.987 37.993,75.882 38.383,75.830 38.567 C 75.674 39.115,75.457 39.901,74.977 41.650 C 74.730 42.550,74.549 43.198,74.435 43.600 C 74.377 43.802,74.303 44.087,74.270 44.233 C 74.237 44.380,74.130 44.800,74.032 45.167 C 73.935 45.533,73.830 45.938,73.801 46.067 C 73.772 46.195,73.611 46.825,73.445 47.467 C 73.278 48.108,73.049 48.993,72.934 49.433 C 72.233 52.138,73.429 53.733,75.767 53.208 C 78.713 52.547,82.543 49.653,84.027 46.967 C 84.087 46.857,84.200 46.662,84.277 46.533 C 84.495 46.168,85.150 44.882,85.380 44.367 C 85.494 44.110,85.662 43.735,85.752 43.533 C 85.842 43.332,86.043 42.852,86.198 42.467 C 86.352 42.082,86.517 41.677,86.563 41.567 C 86.609 41.457,86.714 41.187,86.796 40.967 C 87.036 40.323,87.273 39.720,87.400 39.433 C 87.464 39.287,87.683 38.762,87.884 38.267 C 88.734 36.181,89.214 35.264,90.313 33.620 C 90.946 32.673,90.965 32.683,91.024 33.983 C 91.049 34.524,91.098 35.192,91.133 35.467 C 91.168 35.742,91.244 36.357,91.301 36.833 C 91.359 37.310,91.432 37.835,91.464 38.000 C 91.496 38.165,91.558 38.525,91.603 38.800 C 91.647 39.075,91.721 39.465,91.766 39.667 C 91.812 39.868,91.888 40.213,91.934 40.433 C 92.011 40.798,92.099 41.149,92.376 42.200 C 93.498 46.458,95.673 49.826,98.567 51.782 C 100.138 52.845,101.792 53.482,103.898 53.836 C 104.722 53.975,106.941 53.996,107.633 53.871 C 108.870 53.649,110.112 53.281,110.920 52.898 C 111.188 52.771,111.419 52.667,111.433 52.667 C 111.703 52.667,113.284 51.470,114.191 50.578 C 115.758 49.038,115.692 48.579,113.767 47.629 C 110.888 46.208,107.630 42.806,105.345 38.833 C 104.553 37.456,103.283 34.910,102.868 33.867 C 102.715 33.482,102.563 33.107,102.530 33.033 C 102.430 32.812,102.022 31.540,101.846 30.900 C 101.507 29.673,101.369 29.054,100.940 26.833 C 100.904 26.650,100.843 26.340,100.804 26.145 C 100.672 25.482,100.695 25.394,101.075 25.099 C 101.263 24.953,101.505 24.762,101.612 24.675 C 102.235 24.167,105.514 21.932,106.867 21.092 C 109.560 19.420,110.308 18.946,111.167 18.367 C 114.568 16.073,116.132 14.587,116.988 12.838 C 117.939 10.893,118.047 9.253,117.268 8.547 C 117.111 8.404,117.005 8.347,116.500 8.134 C 115.111 7.548,111.312 8.552,108.879 10.149 C 108.744 10.238,108.318 10.516,107.933 10.767 C 106.918 11.429,105.006 12.792,104.800 13.000 C 104.782 13.019,104.572 13.198,104.333 13.399 C 103.541 14.066,102.426 15.079,101.070 16.367 C 99.966 17.415,100.059 17.318,97.333 20.267 C 96.807 20.835,96.030 21.675,95.605 22.133 C 95.181 22.591,94.683 23.131,94.500 23.333 C 94.317 23.534,93.981 23.894,93.755 24.133 C 93.355 24.555,93.175 24.774,92.771 25.330 C 92.590 25.578,92.400 25.686,92.400 25.539 C 92.400 25.479,92.832 24.242,93.299 22.967 C 93.433 22.600,93.642 22.015,93.763 21.667 C 93.885 21.318,94.050 20.853,94.131 20.633 C 94.212 20.413,94.427 19.813,94.610 19.300 C 94.793 18.787,95.017 18.157,95.109 17.900 C 95.349 17.227,96.290 14.388,96.467 13.800 C 96.550 13.525,96.676 13.120,96.746 12.900 C 98.121 8.583,97.531 7.423,93.933 7.365 C 93.255 7.355,92.595 7.357,92.467 7.372 M259.967 8.196 C 257.674 8.455,256.459 9.568,255.851 11.967 C 254.890 15.758,255.783 16.902,259.700 16.899 C 263.478 16.895,264.761 15.867,265.442 12.300 C 265.903 9.888,265.324 8.726,263.433 8.269 C 263.034 8.172,260.624 8.122,259.967 8.196 M312.067 10.195 C 310.516 10.445,310.113 10.714,309.910 11.635 C 309.845 11.927,309.765 12.287,309.733 12.433 C 309.700 12.580,309.624 12.970,309.565 13.300 C 309.505 13.630,309.430 14.005,309.399 14.133 C 309.368 14.262,309.311 14.532,309.272 14.733 C 309.110 15.575,308.990 16.183,308.935 16.433 C 308.904 16.580,308.845 16.865,308.804 17.067 C 308.764 17.268,308.668 17.748,308.590 18.133 C 308.512 18.518,308.427 18.953,308.400 19.100 C 308.373 19.247,308.288 19.682,308.210 20.067 C 308.132 20.452,308.038 20.917,308.002 21.100 C 307.965 21.283,307.862 21.793,307.773 22.233 C 307.683 22.673,307.597 23.108,307.580 23.200 C 307.564 23.292,307.487 23.682,307.410 24.067 C 307.332 24.452,307.236 24.932,307.196 25.133 C 307.155 25.335,307.096 25.620,307.065 25.767 C 307.007 26.030,306.839 26.877,306.780 27.200 C 306.763 27.292,306.658 27.817,306.547 28.367 C 306.436 28.917,306.331 29.442,306.314 29.533 C 306.296 29.625,306.199 30.090,306.099 30.567 C 305.999 31.043,305.903 31.508,305.886 31.600 C 305.868 31.692,305.764 32.217,305.653 32.767 C 305.542 33.317,305.437 33.842,305.420 33.933 C 305.361 34.257,305.193 35.103,305.135 35.367 C 305.104 35.513,305.045 35.798,305.004 36.000 C 304.964 36.202,304.868 36.682,304.790 37.067 C 304.712 37.452,304.627 37.887,304.600 38.033 C 304.573 38.180,304.488 38.615,304.410 39.000 C 304.332 39.385,304.238 39.850,304.202 40.033 C 304.165 40.217,304.059 40.742,303.967 41.200 C 303.874 41.658,303.766 42.198,303.727 42.400 C 303.687 42.602,303.615 42.962,303.567 43.200 C 303.518 43.438,303.443 43.813,303.400 44.033 C 303.358 44.253,303.296 44.553,303.265 44.700 C 303.210 44.951,303.090 45.559,302.928 46.400 C 302.889 46.602,302.832 46.872,302.801 47.000 C 302.770 47.128,302.695 47.503,302.635 47.833 C 302.576 48.163,302.498 48.553,302.464 48.700 C 301.729 51.833,301.923 52.903,303.303 53.329 C 303.743 53.465,303.837 53.467,313.964 53.467 L 324.180 53.467 324.451 53.270 C 325.036 52.847,325.531 51.811,325.837 50.371 C 326.372 47.854,326.366 46.710,325.817 46.350 C 325.651 46.241,325.167 46.231,318.770 46.200 L 311.900 46.167 311.879 45.980 C 311.867 45.877,311.901 45.607,311.954 45.380 C 312.048 44.981,312.120 44.625,312.272 43.817 C 312.312 43.606,312.376 43.298,312.415 43.133 C 312.454 42.968,312.512 42.691,312.543 42.517 C 312.669 41.816,312.722 41.544,312.831 41.033 C 312.894 40.740,312.959 40.425,312.975 40.333 C 313.028 40.031,313.145 39.439,313.232 39.033 C 313.326 38.593,313.438 38.031,313.543 37.467 C 313.581 37.265,313.651 36.905,313.700 36.667 C 313.749 36.428,313.823 36.053,313.866 35.833 C 313.909 35.613,313.970 35.313,314.002 35.167 C 314.057 34.916,314.177 34.308,314.339 33.467 C 314.378 33.265,314.435 32.995,314.466 32.867 C 314.497 32.738,314.542 32.498,314.567 32.333 C 314.591 32.168,314.637 31.928,314.668 31.800 C 314.699 31.672,314.759 31.387,314.801 31.167 C 314.844 30.947,314.918 30.572,314.967 30.333 C 315.050 29.927,315.132 29.510,315.272 28.800 C 315.304 28.635,315.373 28.290,315.426 28.033 C 315.479 27.777,315.554 27.402,315.593 27.200 C 315.633 26.998,315.712 26.593,315.769 26.300 C 315.826 26.007,315.899 25.647,315.931 25.500 C 315.963 25.353,316.022 25.068,316.062 24.867 C 316.102 24.665,316.199 24.185,316.276 23.800 C 316.354 23.415,316.431 23.025,316.448 22.933 C 316.465 22.842,316.578 22.257,316.700 21.633 C 316.821 21.010,316.935 20.425,316.952 20.333 C 316.969 20.242,317.046 19.852,317.124 19.467 C 317.201 19.082,317.298 18.602,317.338 18.400 C 317.379 18.198,317.453 17.838,317.503 17.600 C 317.553 17.362,317.628 16.987,317.669 16.767 C 317.710 16.547,317.770 16.247,317.802 16.100 C 317.834 15.953,317.907 15.593,317.964 15.300 C 318.079 14.714,318.133 14.442,318.343 13.400 C 318.861 10.835,318.854 10.744,318.105 10.431 C 317.269 10.082,313.650 9.940,312.067 10.195 M29.033 10.840 C 28.923 10.855,28.548 10.899,28.200 10.937 C 21.479 11.690,17.764 15.176,20.554 18.113 C 24.544 22.314,37.734 22.342,41.882 18.159 C 44.733 15.284,41.510 12.064,34.700 10.987 C 33.877 10.857,29.715 10.749,29.033 10.840 M45.975 13.050 C 44.774 19.250,45.130 20.850,48.267 23.373 C 49.422 24.302,52.128 26.169,52.200 26.086 C 52.225 26.057,52.370 25.444,52.522 24.723 C 53.826 18.544,53.373 16.864,49.597 13.883 C 48.775 13.234,46.385 11.471,46.324 11.468 C 46.301 11.467,46.144 12.179,45.975 13.050 M66.433 12.140 C 56.605 14.245,55.765 15.046,53.932 24.067 C 53.742 25.002,53.573 25.789,53.556 25.817 C 53.514 25.885,53.343 25.915,55.763 25.436 C 64.100 23.786,65.264 22.579,67.367 13.400 C 67.464 12.978,67.583 12.461,67.632 12.250 C 67.681 12.039,67.702 11.870,67.677 11.875 C 67.653 11.879,67.093 11.999,66.433 12.140 M18.081 19.738 C 14.042 20.128,11.844 22.712,13.224 25.448 C 17.089 33.112,45.639 39.889,51.487 34.530 C 54.976 31.333,49.818 26.193,39.471 22.558 L 38.242 22.126 37.404 22.292 C 31.494 23.465,23.526 22.390,19.615 19.891 C 19.231 19.645,19.138 19.636,18.081 19.738 M174.267 20.698 C 174.212 20.712,173.927 20.759,173.633 20.803 C 172.848 20.923,171.519 21.279,171.370 21.411 C 171.335 21.441,171.270 21.467,171.225 21.467 C 171.052 21.467,169.547 22.186,168.867 22.594 C 167.072 23.671,165.258 25.340,164.285 26.811 C 164.075 27.128,163.932 27.019,164.067 26.646 C 164.140 26.445,164.201 26.142,164.327 25.367 C 164.396 24.942,164.647 23.655,164.735 23.277 C 164.772 23.118,164.821 22.767,164.844 22.497 L 164.886 22.006 164.656 21.776 C 164.150 21.270,161.909 21.042,159.967 21.298 C 158.322 21.515,157.975 21.730,157.770 22.659 C 157.597 23.445,157.550 23.669,157.466 24.100 C 157.423 24.320,157.349 24.695,157.300 24.933 C 157.251 25.172,157.177 25.547,157.134 25.767 C 157.091 25.987,157.030 26.287,156.998 26.433 C 156.945 26.675,156.871 27.049,156.660 28.133 C 156.621 28.335,156.563 28.620,156.531 28.767 C 156.470 29.050,156.297 29.921,156.247 30.200 C 156.231 30.292,156.126 30.817,156.015 31.367 C 155.904 31.917,155.799 32.442,155.781 32.533 C 155.764 32.625,155.592 33.465,155.400 34.400 C 155.208 35.335,155.036 36.175,155.019 36.267 C 155.001 36.358,154.896 36.883,154.785 37.433 C 154.674 37.983,154.569 38.508,154.553 38.600 C 154.536 38.692,154.450 39.127,154.361 39.567 C 154.272 40.007,154.169 40.517,154.132 40.700 C 154.095 40.883,154.001 41.348,153.923 41.733 C 153.740 42.641,153.695 42.877,153.603 43.395 C 153.561 43.631,153.515 43.843,153.500 43.867 C 153.485 43.890,153.439 44.103,153.397 44.338 C 153.305 44.856,153.260 45.092,153.077 46.000 C 152.999 46.385,152.902 46.865,152.862 47.067 C 152.822 47.268,152.763 47.553,152.731 47.700 C 152.674 47.963,152.506 48.810,152.446 49.133 C 152.368 49.558,151.992 51.406,151.917 51.733 C 151.555 53.314,152.156 53.618,155.667 53.626 C 159.242 53.635,159.997 53.332,160.296 51.767 C 160.359 51.437,160.439 51.032,160.474 50.867 C 160.569 50.413,160.811 49.201,160.867 48.900 C 160.894 48.753,160.979 48.318,161.057 47.933 C 161.135 47.548,161.231 47.068,161.271 46.867 C 161.311 46.665,161.370 46.380,161.402 46.233 C 161.457 45.983,161.577 45.375,161.739 44.533 C 161.778 44.332,161.835 44.062,161.866 43.933 C 161.897 43.805,161.971 43.430,162.031 43.100 C 162.091 42.770,162.168 42.380,162.202 42.233 C 162.237 42.087,162.385 41.352,162.533 40.600 C 162.879 38.837,163.044 38.099,163.248 37.400 C 163.841 35.364,164.996 33.220,166.461 31.433 C 168.208 29.302,170.490 27.964,172.367 27.969 C 173.609 27.972,174.106 28.237,174.677 29.200 C 175.081 29.880,175.253 31.929,175.016 33.217 C 174.971 33.464,174.901 33.869,174.862 34.117 C 174.822 34.364,174.717 34.927,174.628 35.367 C 174.538 35.807,174.433 36.332,174.394 36.533 C 174.354 36.735,174.281 37.095,174.230 37.333 C 174.180 37.572,174.105 37.947,174.064 38.167 C 174.023 38.387,173.963 38.687,173.930 38.833 C 173.858 39.157,173.595 40.435,173.553 40.667 C 173.501 40.957,173.329 41.823,173.269 42.100 C 173.237 42.247,173.178 42.532,173.138 42.733 C 173.098 42.935,173.001 43.415,172.923 43.800 C 172.846 44.185,172.760 44.620,172.733 44.767 C 172.647 45.234,172.070 48.090,172.006 48.367 C 171.972 48.513,171.911 48.798,171.871 49.000 C 171.831 49.202,171.735 49.682,171.657 50.067 C 171.579 50.452,171.487 50.917,171.452 51.100 C 171.417 51.283,171.361 51.568,171.328 51.733 C 171.004 53.353,171.525 53.619,175.033 53.627 C 177.351 53.633,178.275 53.509,178.972 53.101 C 179.477 52.804,179.565 52.585,179.887 50.800 C 179.928 50.569,180.191 49.291,180.263 48.967 C 180.296 48.820,180.356 48.520,180.397 48.300 C 180.439 48.080,180.513 47.705,180.564 47.467 C 180.614 47.228,180.688 46.868,180.729 46.667 C 180.769 46.465,180.865 45.985,180.943 45.600 C 181.088 44.883,181.136 44.640,181.257 44.000 C 181.296 43.798,181.376 43.408,181.436 43.133 C 181.496 42.858,181.568 42.498,181.597 42.333 C 181.658 41.981,182.241 39.089,182.329 38.700 C 182.362 38.553,182.422 38.268,182.462 38.067 C 182.502 37.865,182.599 37.385,182.677 37.000 C 182.754 36.615,182.840 36.180,182.867 36.033 C 182.894 35.887,182.979 35.452,183.057 35.067 C 183.274 33.988,183.325 33.722,183.367 33.433 C 183.388 33.287,183.452 32.897,183.507 32.567 C 184.351 27.585,183.417 23.985,180.800 22.121 C 179.877 21.463,179.068 21.133,177.567 20.797 C 177.256 20.728,174.487 20.645,174.267 20.698 M204.933 20.775 C 198.811 21.524,194.057 25.102,191.147 31.152 C 190.402 32.703,189.662 34.792,189.301 36.367 C 189.242 36.623,189.166 36.953,189.132 37.100 C 189.060 37.408,188.906 38.292,188.806 38.967 C 188.597 40.377,188.567 40.874,188.569 42.833 C 188.571 44.907,188.592 45.167,188.867 46.500 C 189.239 48.312,190.180 50.077,191.376 51.205 C 191.725 51.534,192.561 52.200,192.625 52.200 C 192.646 52.200,192.822 52.300,193.015 52.421 C 193.852 52.948,195.150 53.444,196.467 53.740 C 199.881 54.507,204.962 54.325,209.167 53.286 C 211.493 52.711,212.544 52.132,213.054 51.145 C 213.538 50.207,213.912 48.654,213.981 47.296 C 214.060 45.738,213.776 45.602,211.811 46.263 C 210.624 46.661,209.316 47.050,208.700 47.185 C 208.517 47.226,208.172 47.302,207.933 47.355 C 204.045 48.217,200.551 48.084,198.890 47.010 C 197.263 45.959,196.510 43.340,197.027 40.533 C 197.084 40.222,197.131 39.888,197.132 39.791 C 197.134 39.536,197.146 39.535,200.133 39.535 C 201.618 39.535,203.208 39.504,203.667 39.465 C 205.098 39.346,206.553 39.196,206.900 39.132 C 207.083 39.098,207.503 39.024,207.833 38.966 C 208.461 38.857,208.516 38.845,209.700 38.565 C 215.666 37.152,218.845 33.845,218.830 29.067 C 218.811 23.345,212.875 19.804,204.933 20.775 M235.100 20.799 C 234.157 20.929,233.374 21.082,232.800 21.247 C 232.167 21.429,231.436 21.683,231.370 21.742 C 231.335 21.774,231.268 21.800,231.220 21.800 C 231.044 21.800,229.681 22.506,229.033 22.932 C 225.731 25.106,223.941 28.749,224.277 32.614 C 224.562 35.900,226.069 37.599,230.767 39.933 C 234.820 41.948,235.421 42.539,235.292 44.387 C 235.158 46.313,233.967 47.444,231.491 47.998 C 231.054 48.096,228.501 48.095,228.003 47.997 C 226.199 47.641,224.877 47.112,223.367 46.142 C 221.712 45.079,221.199 45.421,220.580 48.000 C 219.865 50.977,220.068 51.696,221.887 52.639 C 223.019 53.226,224.260 53.600,226.200 53.939 C 228.204 54.289,231.032 54.289,233.000 53.939 C 233.831 53.791,234.177 53.722,234.367 53.666 C 235.411 53.356,236.178 53.105,236.230 53.058 C 236.265 53.026,236.333 53.000,236.381 53.000 C 236.517 53.000,237.915 52.320,238.432 52.002 C 239.645 51.256,240.632 50.393,241.567 49.259 C 243.388 47.049,244.252 43.129,243.534 40.323 C 242.904 37.856,240.679 35.813,236.800 34.138 C 232.941 32.471,231.913 31.267,232.623 29.245 C 232.932 28.363,234.158 27.067,234.682 27.067 C 234.717 27.067,234.841 27.024,234.957 26.972 C 235.655 26.658,237.323 26.516,238.600 26.662 C 239.259 26.737,239.448 26.773,240.100 26.949 C 240.713 27.115,241.892 27.588,242.733 28.005 C 244.169 28.716,244.521 28.740,244.888 28.148 C 245.627 26.953,246.209 24.103,245.899 23.193 C 245.320 21.495,239.467 20.198,235.100 20.799 M282.267 20.801 C 281.237 20.936,280.735 21.024,280.167 21.170 C 279.773 21.271,279.696 21.292,279.033 21.486 C 278.591 21.615,277.641 21.968,277.267 22.143 C 275.038 23.181,273.876 23.963,272.280 25.500 C 269.774 27.913,267.597 31.839,266.735 35.504 C 266.493 36.531,266.473 36.621,266.374 37.133 C 265.894 39.615,265.759 42.282,266.004 44.410 C 266.125 45.453,266.381 46.589,266.686 47.433 C 267.717 50.287,270.376 52.714,273.300 53.470 C 273.410 53.499,273.675 53.570,273.888 53.628 C 276.866 54.443,281.366 54.398,284.396 53.523 C 285.024 53.342,285.372 53.226,285.767 53.067 C 285.840 53.038,286.065 52.947,286.267 52.866 C 286.604 52.731,286.997 52.558,287.600 52.281 C 287.728 52.223,287.949 52.103,288.090 52.016 C 288.231 51.928,288.486 51.780,288.657 51.686 C 289.872 51.019,292.252 48.920,293.139 47.733 C 293.290 47.532,293.483 47.277,293.568 47.167 C 294.472 45.994,295.718 43.714,296.309 42.151 C 298.120 37.359,298.563 31.729,297.421 28.000 C 296.424 24.743,293.569 22.030,290.400 21.329 C 290.272 21.300,290.002 21.230,289.800 21.171 C 288.178 20.703,284.417 20.518,282.267 20.801 M124.433 21.275 C 122.691 21.489,122.202 21.782,122.000 22.732 C 121.906 23.175,121.932 23.454,122.215 25.100 C 122.291 25.540,122.365 25.990,122.378 26.100 C 122.392 26.210,122.432 26.450,122.466 26.633 C 122.500 26.817,122.576 27.252,122.633 27.600 C 122.691 27.948,122.767 28.383,122.801 28.567 C 122.836 28.750,122.940 29.365,123.033 29.933 C 123.126 30.502,123.231 31.117,123.266 31.300 C 123.301 31.483,123.376 31.918,123.432 32.267 C 123.543 32.953,123.638 33.510,123.734 34.033 C 123.767 34.217,123.842 34.652,123.900 35.000 C 123.958 35.348,124.032 35.783,124.065 35.967 C 124.097 36.150,124.156 36.495,124.194 36.733 C 124.265 37.174,124.424 38.097,124.533 38.700 C 124.566 38.883,124.642 39.333,124.702 39.700 C 124.762 40.067,124.837 40.517,124.869 40.700 C 124.901 40.883,124.958 41.213,124.996 41.433 C 125.034 41.653,125.107 42.073,125.158 42.367 C 125.210 42.660,125.287 43.110,125.329 43.367 C 125.413 43.884,125.480 44.274,125.634 45.167 C 125.691 45.497,125.766 45.932,125.800 46.133 C 125.834 46.335,125.909 46.770,125.966 47.100 C 126.023 47.430,126.099 47.872,126.135 48.083 C 126.269 48.872,126.334 49.248,126.425 49.767 C 126.477 50.060,126.553 50.510,126.595 50.767 C 126.727 51.571,126.793 51.950,126.898 52.507 C 127.081 53.476,127.116 53.381,126.048 54.784 C 125.525 55.471,125.038 56.112,124.965 56.209 C 124.759 56.483,123.542 58.084,122.869 58.967 C 118.984 64.063,119.067 63.944,119.067 64.435 C 119.067 65.153,119.678 65.407,121.714 65.532 C 124.107 65.680,126.511 65.425,127.638 64.904 C 128.344 64.578,128.484 64.410,130.864 61.033 C 132.053 59.347,133.914 56.707,135.000 55.167 C 138.090 50.784,139.737 48.354,140.671 46.800 C 140.903 46.415,141.341 45.686,141.646 45.180 C 141.951 44.675,142.200 44.244,142.200 44.224 C 142.200 44.204,142.256 44.108,142.324 44.010 C 142.392 43.913,142.547 43.653,142.668 43.433 C 143.014 42.805,143.086 42.676,143.485 41.962 C 144.360 40.398,146.268 36.622,146.919 35.167 C 147.066 34.837,147.298 34.327,147.434 34.034 C 147.570 33.741,147.736 33.362,147.803 33.192 C 147.870 33.022,147.990 32.737,148.070 32.558 C 148.347 31.940,148.400 31.813,148.400 31.773 C 148.400 31.750,148.463 31.590,148.540 31.416 C 148.617 31.242,148.706 31.040,148.738 30.967 C 148.770 30.893,149.023 30.248,149.301 29.533 C 149.579 28.818,149.831 28.173,149.862 28.100 C 149.961 27.863,150.245 27.127,150.724 25.867 C 151.998 22.512,151.963 21.713,150.533 21.411 C 148.702 21.025,144.886 21.169,143.765 21.666 C 143.291 21.877,143.197 22.002,142.965 22.742 C 142.869 23.049,142.765 23.375,142.735 23.467 C 142.704 23.558,142.598 23.903,142.499 24.233 C 142.290 24.929,141.198 28.240,141.047 28.633 C 140.991 28.780,140.790 29.320,140.600 29.833 C 140.248 30.786,140.229 30.837,140.036 31.300 C 139.974 31.447,139.899 31.627,139.869 31.700 C 139.838 31.773,139.750 31.976,139.673 32.149 C 139.596 32.323,139.533 32.484,139.533 32.506 C 139.533 32.528,139.488 32.649,139.433 32.773 C 139.378 32.898,139.291 33.097,139.239 33.217 C 139.094 33.549,138.856 34.084,138.428 35.033 C 138.062 35.845,136.803 38.373,136.469 38.967 C 135.572 40.560,135.265 41.081,134.549 42.217 C 133.664 43.624,133.564 43.719,133.503 43.217 C 133.461 42.872,133.395 42.413,133.235 41.333 C 133.178 40.948,133.102 40.431,133.065 40.183 C 133.029 39.936,132.971 39.531,132.935 39.283 C 132.898 39.036,132.822 38.518,132.765 38.133 C 132.708 37.748,132.632 37.231,132.597 36.983 C 132.562 36.736,132.503 36.331,132.466 36.083 C 132.364 35.401,132.207 34.352,132.136 33.867 C 132.101 33.628,132.025 33.118,131.968 32.733 C 131.863 32.027,131.787 31.507,131.668 30.683 C 131.633 30.436,131.560 29.948,131.506 29.600 C 131.453 29.252,131.375 28.727,131.334 28.433 C 131.293 28.140,131.232 27.720,131.199 27.500 C 131.165 27.280,131.091 26.770,131.033 26.367 C 130.975 25.963,130.900 25.468,130.867 25.267 C 130.834 25.065,130.758 24.555,130.698 24.133 C 130.639 23.712,130.562 23.223,130.528 23.047 C 130.494 22.871,130.467 22.651,130.467 22.559 C 130.467 21.810,129.884 21.396,128.663 21.276 C 127.783 21.189,125.131 21.189,124.433 21.275 M256.900 21.300 C 254.608 21.561,254.462 21.714,253.952 24.400 C 253.935 24.492,253.821 25.077,253.700 25.700 C 253.578 26.323,253.465 26.908,253.448 27.000 C 253.431 27.092,253.354 27.482,253.276 27.867 C 253.199 28.252,253.102 28.732,253.062 28.933 C 253.022 29.135,252.963 29.420,252.931 29.567 C 252.879 29.806,252.833 30.039,252.600 31.233 C 252.367 32.428,252.321 32.661,252.269 32.900 C 252.237 33.047,252.176 33.347,252.133 33.567 C 252.090 33.787,252.015 34.162,251.967 34.400 C 251.918 34.638,251.845 34.998,251.805 35.200 C 251.764 35.402,251.668 35.882,251.590 36.267 C 251.513 36.652,251.436 37.042,251.419 37.133 C 251.401 37.225,251.288 37.810,251.166 38.433 C 251.045 39.057,250.931 39.642,250.914 39.733 C 250.898 39.825,250.820 40.215,250.743 40.600 C 250.665 40.985,250.569 41.465,250.529 41.667 C 250.489 41.868,250.430 42.153,250.398 42.300 C 250.346 42.539,250.300 42.772,250.067 43.967 C 249.834 45.161,249.787 45.394,249.735 45.633 C 249.704 45.780,249.642 46.080,249.600 46.300 C 249.557 46.520,249.482 46.895,249.433 47.133 C 249.385 47.372,249.312 47.732,249.271 47.933 C 249.231 48.135,249.135 48.615,249.057 49.000 C 248.980 49.385,248.902 49.775,248.885 49.867 C 248.868 49.958,248.752 50.545,248.627 51.170 C 248.336 52.626,248.336 52.757,248.621 53.025 C 249.111 53.486,249.976 53.627,252.300 53.626 C 255.756 53.624,256.581 53.318,256.861 51.933 C 257.063 50.933,257.220 50.150,257.248 50.000 C 257.265 49.908,257.370 49.383,257.481 48.833 C 257.592 48.283,257.696 47.758,257.713 47.667 C 257.731 47.575,257.814 47.140,257.899 46.700 C 257.984 46.260,258.068 45.825,258.085 45.733 C 258.102 45.642,258.207 45.117,258.318 44.567 C 258.429 44.017,258.534 43.492,258.552 43.400 C 258.569 43.308,258.646 42.918,258.724 42.533 C 258.801 42.148,258.895 41.683,258.932 41.500 C 258.969 41.317,259.074 40.792,259.167 40.333 C 259.259 39.875,259.365 39.350,259.402 39.167 C 259.438 38.983,259.532 38.518,259.610 38.133 C 259.687 37.748,259.764 37.358,259.781 37.267 C 259.798 37.175,259.903 36.650,260.014 36.100 C 260.125 35.550,260.230 35.025,260.247 34.933 C 260.264 34.842,260.348 34.407,260.433 33.967 C 260.518 33.527,260.602 33.092,260.619 33.000 C 260.637 32.908,260.742 32.383,260.853 31.833 C 260.964 31.283,261.068 30.758,261.085 30.667 C 261.102 30.575,261.180 30.185,261.257 29.800 C 261.335 29.415,261.428 28.950,261.465 28.767 C 261.502 28.583,261.608 28.058,261.700 27.600 C 261.792 27.142,261.898 26.617,261.935 26.433 C 261.972 26.250,262.065 25.785,262.143 25.400 C 262.221 25.015,262.308 24.565,262.336 24.400 C 262.365 24.235,262.451 23.803,262.528 23.439 C 262.798 22.156,262.718 21.875,262.000 21.586 C 261.123 21.233,258.694 21.097,256.900 21.300 M338.433 21.300 C 336.511 21.514,336.107 21.771,335.872 22.933 C 335.831 23.135,335.734 23.615,335.656 24.000 C 335.578 24.385,335.492 24.835,335.465 25.000 C 335.404 25.370,335.290 25.945,335.207 26.300 C 335.172 26.447,335.112 26.732,335.073 26.933 C 334.862 28.018,334.788 28.392,334.735 28.633 C 334.673 28.919,334.629 29.146,334.368 30.500 C 334.276 30.977,334.173 31.502,334.139 31.667 C 334.007 32.300,333.857 33.048,333.790 33.400 C 333.689 33.932,333.616 34.305,333.507 34.833 C 333.337 35.662,332.872 37.984,332.819 38.267 C 332.802 38.358,332.687 38.943,332.563 39.567 C 332.246 41.159,332.073 42.208,331.868 43.767 C 331.700 45.038,331.772 46.957,332.037 48.300 C 332.952 52.937,336.903 55.020,342.733 53.938 C 344.944 53.528,347.972 51.741,350.022 49.636 C 350.560 49.084,351.467 47.935,351.467 47.806 C 351.467 47.766,351.501 47.733,351.542 47.733 C 351.593 47.733,351.602 47.813,351.569 47.983 C 351.542 48.121,351.497 48.368,351.467 48.533 C 351.438 48.698,351.364 49.088,351.303 49.400 C 351.243 49.712,351.164 50.132,351.129 50.333 C 351.095 50.535,351.039 50.835,351.007 51.000 C 350.540 53.369,350.686 53.535,353.333 53.635 C 355.887 53.732,357.290 53.421,357.657 52.677 C 357.767 52.455,357.822 52.239,357.998 51.333 C 358.030 51.168,358.106 50.793,358.165 50.500 C 358.225 50.207,358.305 49.802,358.344 49.600 C 358.382 49.398,358.452 49.053,358.499 48.833 C 358.597 48.374,358.688 47.923,358.836 47.167 C 358.893 46.873,358.966 46.513,358.998 46.367 C 359.030 46.220,359.088 45.935,359.127 45.733 C 359.338 44.645,359.412 44.275,359.465 44.033 C 359.497 43.887,359.556 43.587,359.597 43.367 C 359.639 43.147,359.713 42.772,359.764 42.533 C 359.814 42.295,359.887 41.935,359.927 41.733 C 359.966 41.532,360.072 41.007,360.161 40.567 C 360.250 40.127,360.336 39.692,360.353 39.600 C 360.369 39.508,360.444 39.133,360.518 38.767 C 360.593 38.400,360.668 38.025,360.685 37.933 C 360.703 37.842,360.808 37.317,360.918 36.767 C 361.029 36.217,361.134 35.692,361.152 35.600 C 361.171 35.508,361.265 35.043,361.363 34.567 C 361.460 34.090,361.568 33.550,361.603 33.367 C 361.667 33.028,361.824 32.238,362.185 30.433 C 362.296 29.883,362.401 29.358,362.418 29.267 C 362.436 29.175,362.541 28.650,362.652 28.100 C 362.762 27.550,362.867 27.025,362.884 26.933 C 362.902 26.842,362.977 26.467,363.052 26.100 C 363.126 25.733,363.201 25.358,363.219 25.267 C 363.237 25.175,363.375 24.495,363.526 23.756 C 363.879 22.025,363.867 21.910,363.311 21.622 C 362.415 21.157,359.364 21.074,356.795 21.444 C 356.128 21.540,355.498 22.021,355.399 22.509 C 355.348 22.759,355.040 24.294,354.932 24.833 C 354.903 24.980,354.845 25.293,354.803 25.528 C 354.761 25.764,354.715 25.976,354.700 26.000 C 354.685 26.024,354.638 26.252,354.595 26.505 C 354.487 27.138,354.406 27.557,354.067 29.233 C 354.030 29.417,353.928 29.942,353.840 30.400 C 353.623 31.526,353.624 31.519,353.433 32.467 C 353.341 32.925,353.248 33.390,353.226 33.500 C 353.205 33.610,353.127 34.000,353.053 34.367 C 352.979 34.733,352.894 35.168,352.863 35.333 C 351.919 40.396,348.030 45.803,344.667 46.727 C 344.502 46.772,344.264 46.841,344.138 46.880 C 343.198 47.171,341.779 46.836,341.241 46.197 C 340.546 45.372,340.289 43.358,340.630 41.427 C 340.832 40.287,340.867 40.096,340.975 39.567 C 341.034 39.273,341.097 38.958,341.113 38.867 C 341.177 38.518,341.342 37.689,341.400 37.433 C 341.433 37.287,341.614 36.357,341.801 35.367 C 341.989 34.377,342.170 33.462,342.203 33.333 C 342.237 33.205,342.339 32.695,342.431 32.200 C 342.523 31.705,342.629 31.150,342.667 30.967 C 342.857 30.040,343.024 29.202,343.072 28.933 C 343.101 28.768,343.145 28.543,343.169 28.433 C 343.279 27.933,343.490 26.872,343.533 26.600 C 343.560 26.435,343.642 26.000,343.717 25.633 C 343.792 25.267,343.868 24.892,343.885 24.800 C 343.903 24.708,344.011 24.177,344.125 23.618 C 344.436 22.105,344.404 21.909,343.802 21.598 C 343.142 21.257,340.260 21.098,338.433 21.300 M371.667 21.303 C 369.812 21.505,369.301 22.091,369.869 23.367 C 369.902 23.440,370.052 23.845,370.202 24.267 C 370.352 24.688,370.501 25.093,370.534 25.167 C 370.568 25.240,370.653 25.480,370.725 25.700 C 370.796 25.920,370.934 26.310,371.030 26.567 C 371.190 26.993,371.461 27.743,371.669 28.333 C 371.714 28.462,371.777 28.619,371.809 28.682 C 371.841 28.746,371.867 28.853,371.867 28.919 C 371.867 28.986,371.892 29.068,371.924 29.103 C 371.956 29.138,372.037 29.332,372.104 29.533 C 372.172 29.735,372.251 29.929,372.280 29.963 C 372.309 29.998,372.333 30.080,372.333 30.144 C 372.333 30.209,372.382 30.376,372.443 30.514 C 372.610 30.900,372.652 31.009,372.760 31.333 C 372.939 31.868,373.141 32.430,373.204 32.567 C 373.238 32.640,373.372 33.000,373.502 33.367 C 374.029 34.855,374.200 35.330,374.437 35.967 C 374.837 37.038,374.884 36.867,373.803 38.274 C 373.285 38.948,372.825 39.545,372.780 39.601 C 372.736 39.656,372.430 40.058,372.100 40.495 C 371.458 41.343,370.869 42.117,370.067 43.164 C 369.792 43.523,369.243 44.240,368.846 44.758 C 368.450 45.276,368.056 45.790,367.970 45.900 C 367.884 46.010,367.540 46.460,367.206 46.900 C 366.871 47.340,366.201 48.221,365.716 48.857 C 365.230 49.494,364.774 50.094,364.701 50.191 C 364.629 50.287,364.323 50.685,364.022 51.074 C 362.279 53.326,362.683 53.640,367.300 53.626 C 370.783 53.616,371.512 53.485,372.158 52.748 C 372.381 52.494,372.857 51.842,374.400 49.672 C 374.822 49.079,375.347 48.342,375.567 48.035 C 375.787 47.727,376.443 46.806,377.026 45.988 C 377.609 45.169,378.254 44.273,378.460 43.996 C 378.665 43.718,379.058 43.171,379.333 42.780 C 379.912 41.957,379.888 41.971,380.035 42.383 C 380.097 42.557,380.171 42.760,380.200 42.833 C 380.229 42.907,380.299 43.117,380.357 43.300 C 380.415 43.483,380.583 43.978,380.732 44.400 C 380.880 44.822,381.165 45.647,381.364 46.233 C 382.502 49.581,382.720 50.209,382.758 50.247 C 382.781 50.270,382.800 50.344,382.800 50.412 C 382.800 50.480,382.830 50.587,382.867 50.651 C 382.905 50.715,383.054 51.127,383.199 51.567 C 383.695 53.068,383.740 53.151,384.154 53.327 C 385.158 53.752,390.243 53.767,391.467 53.348 C 392.141 53.116,392.450 52.702,392.367 52.138 C 392.326 51.861,392.034 50.959,391.729 50.167 C 391.700 50.093,391.603 49.823,391.511 49.567 C 391.420 49.310,391.286 48.935,391.213 48.733 C 391.141 48.532,391.029 48.217,390.965 48.033 C 390.900 47.850,390.824 47.640,390.797 47.567 C 390.769 47.493,390.709 47.328,390.663 47.200 C 390.618 47.072,390.544 46.877,390.500 46.767 C 390.456 46.657,390.352 46.372,390.269 46.133 C 390.133 45.746,389.745 44.660,389.648 44.400 C 389.577 44.206,389.255 43.297,389.188 43.100 C 389.094 42.823,389.036 42.673,388.909 42.381 C 388.849 42.242,388.800 42.084,388.800 42.030 C 388.800 41.976,388.772 41.879,388.737 41.816 C 388.703 41.752,388.596 41.475,388.500 41.200 C 388.404 40.925,388.297 40.648,388.263 40.584 C 388.228 40.521,388.200 40.410,388.200 40.338 C 388.200 40.267,388.172 40.191,388.138 40.170 C 388.105 40.149,388.056 40.036,388.030 39.918 C 388.004 39.801,387.959 39.658,387.929 39.602 C 387.899 39.546,387.796 39.275,387.700 39.000 C 387.604 38.725,387.497 38.448,387.463 38.384 C 387.428 38.321,387.400 38.230,387.400 38.183 C 387.400 38.136,387.310 37.863,387.200 37.578 C 387.090 37.292,387.000 37.007,387.000 36.944 C 387.000 36.852,388.545 34.724,389.766 33.133 C 389.986 32.847,390.539 32.106,394.865 26.300 C 395.904 24.907,396.825 23.677,396.912 23.567 C 398.275 21.857,398.072 21.446,395.774 21.267 C 393.468 21.087,390.557 21.260,389.716 21.626 C 389.281 21.816,389.209 21.907,386.585 25.567 C 386.138 26.190,385.755 26.715,385.734 26.733 C 385.696 26.767,384.487 28.444,382.811 30.789 C 381.769 32.249,381.788 32.233,381.636 31.815 C 381.573 31.642,381.449 31.304,381.360 31.065 C 381.272 30.826,381.200 30.580,381.200 30.519 C 381.200 30.458,381.174 30.392,381.141 30.372 C 381.109 30.352,381.067 30.267,381.048 30.184 C 381.029 30.101,380.828 29.508,380.601 28.867 C 380.375 28.225,380.159 27.595,380.122 27.467 C 380.085 27.338,380.027 27.205,379.994 27.170 C 379.961 27.135,379.933 27.039,379.933 26.957 C 379.933 26.875,379.903 26.789,379.867 26.767 C 379.830 26.744,379.800 26.658,379.800 26.576 C 379.800 26.494,379.773 26.398,379.740 26.363 C 379.706 26.328,379.649 26.195,379.611 26.067 C 379.574 25.938,379.358 25.308,379.132 24.667 C 378.906 24.025,378.705 23.432,378.686 23.349 C 378.666 23.266,378.624 23.182,378.592 23.162 C 378.560 23.142,378.533 23.075,378.533 23.014 C 378.533 22.554,378.013 21.626,377.676 21.486 C 377.060 21.228,373.383 21.117,371.667 21.303 M56.800 26.528 C 56.195 26.595,55.168 26.719,54.519 26.804 L 53.337 26.958 53.614 27.462 C 57.666 34.847,59.059 35.533,67.883 34.493 C 68.381 34.435,68.415 34.542,67.310 32.693 C 63.779 26.782,62.310 25.920,56.800 26.528 M207.143 26.668 C 207.861 26.738,208.452 26.848,208.567 26.934 C 208.603 26.961,208.708 27.006,208.800 27.034 C 209.808 27.341,210.600 28.543,210.600 29.767 C 210.600 31.318,209.639 32.478,207.700 33.269 C 207.571 33.321,207.217 33.438,206.733 33.589 C 205.494 33.975,203.645 34.155,200.856 34.161 C 198.382 34.167,198.333 34.162,198.448 33.917 C 198.486 33.834,198.598 33.512,198.696 33.200 C 198.794 32.888,198.901 32.573,198.934 32.500 C 200.651 28.719,202.722 26.935,205.702 26.672 C 206.031 26.642,206.334 26.614,206.376 26.609 C 206.418 26.604,206.763 26.630,207.143 26.668 M285.800 27.435 C 288.318 28.067,289.608 30.357,289.369 33.767 C 289.271 35.160,289.186 36.001,289.089 36.533 C 289.032 36.845,288.962 37.235,288.932 37.400 C 288.753 38.397,288.129 40.429,287.733 41.302 C 287.384 42.073,287.053 42.724,286.835 43.067 C 286.707 43.268,286.573 43.499,286.538 43.578 C 286.433 43.816,285.345 45.136,284.909 45.556 C 281.974 48.381,276.854 48.244,275.288 45.298 C 274.514 43.842,274.342 41.407,274.808 38.503 C 275.033 37.099,275.056 36.975,275.169 36.567 C 275.230 36.347,275.334 35.957,275.399 35.700 C 275.504 35.287,275.702 34.693,275.865 34.300 C 275.895 34.227,275.959 34.062,276.006 33.933 C 277.022 31.173,278.895 28.919,281.006 27.913 C 282.316 27.290,284.395 27.082,285.800 27.435 M18.933 32.740 C 18.768 32.771,18.108 32.889,17.467 33.002 C 9.010 34.486,3.801 37.160,2.157 40.859 C 0.301 45.038,2.851 48.763,9.682 51.851 C 17.993 55.608,30.382 56.837,41.400 54.998 C 59.330 52.005,65.443 42.802,53.751 36.402 L 53.003 35.992 52.699 36.224 C 49.706 38.509,42.248 38.805,33.127 37.000 C 28.268 36.038,22.995 34.441,20.007 33.026 C 19.589 32.829,19.244 32.670,19.240 32.675 C 19.236 32.679,19.098 32.708,18.933 32.740 " stroke="none" fill="#000000" fill-rule="evenodd"></path></g></svg>